<?xml version="1.0" ?><svg enable-background="new 0 0 64 64" version="1.1" viewBox="0 0 64 64" xml:space="preserve" xmlns="http://www.w3.org/2000/svg" xmlns:xlink="http://www.w3.org/1999/xlink"><g id="Layer_1"/><g id="icon"><g><g><path d="M33.809,54.859c-1.311,0-2.542-0.51-3.468-1.437c-0.927-0.927-1.438-2.159-1.438-3.469c0-1.311,0.511-2.542,1.438-3.469     l12.867-12.867c0.433-0.433,0.67-1.007,0.67-1.618s-0.237-1.186-0.67-1.617L30.341,17.514c-0.927-0.926-1.437-2.158-1.437-3.469     s0.51-2.543,1.437-3.469c0.926-0.926,2.157-1.437,3.468-1.437c1.312,0,2.543,0.511,3.469,1.438l16.806,16.806     c1.233,1.232,1.913,2.872,1.913,4.616c0,1.745-0.68,3.385-1.913,4.617L37.278,53.423C36.352,54.349,35.121,54.859,33.809,54.859z      M33.809,11.14c-0.775,0-1.505,0.303-2.054,0.852c-0.549,0.549-0.851,1.277-0.851,2.054s0.302,1.506,0.851,2.055l12.867,12.868     c0.81,0.81,1.256,1.886,1.256,3.031s-0.446,2.223-1.256,3.032L31.756,47.9c-0.549,0.549-0.852,1.278-0.852,2.054     s0.303,1.506,0.852,2.055c1.099,1.099,3.012,1.097,4.108,0L52.67,35.203c0.855-0.855,1.327-1.993,1.327-3.203     s-0.472-2.347-1.327-3.202L35.864,11.992C35.315,11.443,34.586,11.14,33.809,11.14z"/></g></g><g><g><path d="M12.909,54.859c-1.311,0-2.542-0.51-3.468-1.437c-0.927-0.927-1.438-2.159-1.438-3.469c0-1.311,0.511-2.542,1.438-3.469     l12.867-12.867c0.433-0.433,0.67-1.007,0.67-1.618s-0.237-1.186-0.67-1.617L9.441,17.514c-0.927-0.926-1.437-2.158-1.437-3.469     s0.51-2.543,1.437-3.469c0.926-0.926,2.157-1.437,3.468-1.437s2.542,0.511,3.469,1.438l16.805,16.806     c1.233,1.231,1.913,2.871,1.913,4.616s-0.68,3.385-1.913,4.617L16.378,53.423C15.451,54.349,14.219,54.859,12.909,54.859z      M12.909,11.14c-0.775,0-1.505,0.303-2.054,0.852s-0.851,1.277-0.851,2.054s0.302,1.506,0.851,2.055l12.867,12.868     c0.81,0.81,1.256,1.886,1.256,3.031s-0.446,2.223-1.256,3.032L10.855,47.9c-0.549,0.549-0.852,1.278-0.852,2.054     s0.303,1.506,0.852,2.055c1.098,1.099,3.011,1.097,4.108,0l16.805-16.806c0.855-0.855,1.327-1.993,1.327-3.203     c0-1.211-0.471-2.348-1.326-3.201L14.964,11.992C14.415,11.443,13.685,11.14,12.909,11.14z"/></g></g></g></svg>