<?xml version="1.0" ?><svg enable-background="new 0 0 64 64" version="1.1" viewBox="0 0 64 64" xml:space="preserve" xmlns="http://www.w3.org/2000/svg" xmlns:xlink="http://www.w3.org/1999/xlink"><g id="Layer_1"/><g id="icon"><g><g><path d="M32,46.206c-1.822,0-3.535-0.71-4.822-1.998L9.488,26.518c-0.966-0.965-1.497-2.249-1.497-3.613     c0-1.365,0.531-2.649,1.497-3.614c0.964-0.965,2.247-1.497,3.613-1.497s2.649,0.532,3.614,1.497L30.26,32.836     c0.93,0.93,2.55,0.93,3.479,0l13.545-13.545c0.965-0.966,2.248-1.497,3.614-1.497c1.365,0,2.648,0.531,3.613,1.497     c0.966,0.965,1.497,2.249,1.497,3.614c0,1.364-0.531,2.648-1.497,3.613l-17.69,17.689C35.535,45.496,33.822,46.206,32,46.206z      M13.101,19.794c-0.831,0-1.612,0.323-2.198,0.911c-1.214,1.213-1.214,3.187-0.001,4.399l17.689,17.689     c0.91,0.911,2.12,1.412,3.408,1.412c1.288,0,2.498-0.501,3.408-1.412l17.69-17.689c1.213-1.213,1.213-3.187,0-4.399     c-1.175-1.177-3.227-1.176-4.399,0L35.154,34.25c-0.843,0.843-1.963,1.307-3.154,1.307c-1.191,0-2.312-0.464-3.153-1.307     L15.3,20.705C14.714,20.117,13.932,19.794,13.101,19.794z"/></g></g></g></svg>