<?xml version="1.0" ?><svg enable-background="new 0 0 64 64" version="1.1" viewBox="0 0 64 64" xml:space="preserve" xmlns="http://www.w3.org/2000/svg" xmlns:xlink="http://www.w3.org/1999/xlink"><g id="Layer_1"/><g id="icon"><path d="M52.844,17.5H28v-2.313c0-1.481-1.206-2.688-2.688-2.688H10.687C9.206,12.5,8,13.706,8,15.187V17.5v2v28.844   c0,1.74,1.416,3.156,3.156,3.156H15h5h24h5h3.844c1.74,0,3.156-1.416,3.156-3.156V20.656C56,18.916,54.584,17.5,52.844,17.5z    M10,15.187c0-0.379,0.309-0.688,0.688-0.688h14.625c0.379,0,0.688,0.309,0.688,0.688V17.5H10V15.187z M22,49.5v-5.166   c0-1.012,0.822-1.834,1.833-1.834h16.334c1.011,0,1.833,0.822,1.833,1.834V49.5H22z M44,49.5v-5.166   c0-2.114-1.72-3.834-3.833-3.834H23.833C21.72,40.5,20,42.22,20,44.334V49.5h-3v-8.875c0-1.723,1.402-3.125,3.125-3.125h23.75   c1.723,0,3.125,1.402,3.125,3.125V49.5H44z M54,48.344c0,0.638-0.519,1.156-1.156,1.156H49v-8.875c0-2.826-2.299-5.125-5.125-5.125   h-23.75C17.299,35.5,15,37.799,15,40.625V49.5h-3.844C10.518,49.5,10,48.981,10,48.344V19.5h18h24.844   c0.638,0,1.156,0.519,1.156,1.156V48.344z"/></g></svg>